<?xml version="1.0" encoding="UTF-8" standalone="no"?>
<svg
   version="1.0"
   width="1280.000000pt"
   height="720.000000pt"
   viewBox="0 0 1280.000000 720.000000"
   preserveAspectRatio="xMidYMid meet"
   id="svg22"
   sodipodi:docname="NaMeco_logo.svg"
   inkscape:export-filename="NaMeco_logo.png"
   inkscape:export-xdpi="500"
   inkscape:export-ydpi="500"
   inkscape:version="1.2.2 (b0a8486541, 2022-12-01)"
   xmlns:inkscape="http://www.inkscape.org/namespaces/inkscape"
   xmlns:sodipodi="http://sodipodi.sourceforge.net/DTD/sodipodi-0.dtd"
   xmlns:xlink="http://www.w3.org/1999/xlink"
   xmlns="http://www.w3.org/2000/svg"
   xmlns:svg="http://www.w3.org/2000/svg">
  <defs
     id="defs26">
    <clipPath
       clipPathUnits="userSpaceOnUse"
       id="clipPath948">
      <use
         x="0"
         y="0"
         xlink:href="#g944"
         id="use950" />
    </clipPath>
  </defs>
  <sodipodi:namedview
     id="namedview24"
     pagecolor="#ffffff"
     bordercolor="#666666"
     borderopacity="1.0"
     inkscape:showpageshadow="2"
     inkscape:pageopacity="0.0"
     inkscape:pagecheckerboard="0"
     inkscape:deskcolor="#d1d1d1"
     inkscape:document-units="pt"
     showgrid="false"
     inkscape:zoom="0.90410156"
     inkscape:cx="909.18989"
     inkscape:cy="482.79974"
     inkscape:window-width="2494"
     inkscape:window-height="1363"
     inkscape:window-x="1986"
     inkscape:window-y="40"
     inkscape:window-maximized="1"
     inkscape:current-layer="svg22" />
  <g
     id="g946"
     clip-path="url(#clipPath948)"
     transform="translate(0,22.5)"
     inkscape:export-filename="NaMeco_logo.png"
     inkscape:export-xdpi="29.064606"
     inkscape:export-ydpi="29.064606">
    <g
       inkscape:label="Clip"
       id="g944">
      <rect
         style="fill:#ffffff;fill-opacity:1;stroke:#005353;stroke-width:0.850395"
         id="rect856"
         width="1238.62"
         height="306.49664"
         x="21.425552"
         y="167.73727" />
    </g>
  </g>
  <g
     transform="matrix(0.1,0,0,-0.1,-12,720)"
     fill="#000000"
     stroke="none"
     id="g20">
    <path
       d="m 630,3780 v -950 h 275 275 l 2,521 3,520 355,-520 354,-521 h 273 273 v 950 950 h -275 -275 l -2,-519 -3,-519 -351,516 -352,517 -276,3 -276,2 z"
       id="path2" />
    <path
       d="m 4600,3780 v -950 l 238,2 237,3 5,712 5,712 174,-682 c 96,-375 178,-697 183,-715 l 9,-32 216,2 216,3 181,707 181,707 5,-707 5,-707 238,-3 237,-2 v 950 950 h -385 c -212,0 -385,-2 -385,-5 0,-11 -281,-1101 -288,-1118 -5,-12 -58,179 -153,550 l -146,568 -387,3 -386,2 z"
       id="path4" />
    <path
       d="m 11270,4570 c -460,-98 -790,-503 -790,-970 0,-477 342,-886 815,-975 117,-23 315,-16 429,14 98,26 248,97 332,156 257,184 414,488 414,805 0,474 -342,886 -809,974 -111,21 -283,20 -391,-4 z m 315,-31 c 269,-33 507,-174 668,-396 56,-76 124,-227 148,-329 17,-67 22,-120 22,-214 0,-154 -24,-263 -88,-398 -53,-113 -123,-209 -208,-289 -474,-443 -1234,-297 -1512,289 -64,135 -88,244 -88,398 0,154 24,263 87,396 52,110 88,163 163,245 171,184 425,299 683,308 19,0 76,-4 125,-10 z"
       id="path6" />
    <path
       d="m 11357,4380 c -289,-46 -534,-250 -628,-522 -100,-294 -28,-602 193,-819 164,-162 419,-250 642,-221 338,44 603,279 682,608 10,42 17,110 17,174 0,425 -327,765 -753,785 -52,2 -121,0 -153,-5 z m 272,-55 c 570,-120 785,-816 383,-1238 -139,-145 -333,-227 -537,-227 -204,0 -398,82 -537,227 -396,416 -197,1094 362,1233 93,23 234,25 329,5 z"
       id="path8" />
    <path
       d="m 11259,4108 c -1,-7 0,-29 0,-48 1,-31 -3,-37 -36,-52 l -38,-18 -23,30 c -26,34 -62,40 -62,12 0,-10 11,-29 25,-42 31,-29 31,-41 0,-70 l -25,-24 -45,22 c -56,27 -65,27 -65,2 0,-13 14,-27 40,-40 22,-11 40,-22 40,-25 0,-2 -7,-20 -16,-39 -16,-32 -19,-34 -53,-28 -64,10 -76,8 -76,-13 0,-16 10,-22 46,-28 l 47,-9 -11,-33 c -10,-32 -13,-34 -61,-37 -43,-3 -51,-6 -51,-23 0,-16 8,-21 43,-23 24,-2 42,-8 42,-15 -1,-35 -17,-59 -56,-82 -43,-25 -55,-47 -34,-60 6,-4 22,0 35,9 34,22 42,20 48,-14 5,-21 -1,-41 -18,-72 -13,-23 -22,-45 -19,-50 11,-18 40,-6 56,22 17,30 18,30 42,15 19,-13 26,-27 28,-58 2,-30 8,-43 21,-45 14,-3 17,4 17,37 0,26 5,41 13,41 6,0 21,3 32,5 15,4 26,-4 44,-30 25,-37 61,-48 61,-17 -1,9 -11,30 -25,46 l -23,29 26,33 27,33 27,-26 c 27,-26 58,-26 58,0 0,8 -18,28 -40,46 -30,24 -40,39 -40,61 0,58 7,62 61,34 28,-13 54,-22 59,-19 22,13 7,35 -40,61 -55,30 -59,40 -31,75 18,22 19,23 62,6 58,-22 79,-22 79,2 0,14 -13,24 -51,36 l -51,17 28,29 c 22,23 36,29 83,31 42,2 56,7 56,18 0,10 -13,16 -42,18 -42,3 -43,4 -43,37 0,18 -5,46 -11,62 -9,25 -7,31 20,54 17,14 31,33 31,42 0,21 -33,22 -50,1 -24,-27 -46,-34 -77,-22 -25,9 -32,19 -39,57 -6,31 -15,47 -26,49 -10,2 -18,-2 -19,-10 z m 99,-163 c 15,-18 22,-39 22,-65 0,-34 -8,-48 -51,-96 -61,-67 -96,-140 -110,-226 -18,-105 -19,-109 -44,-134 -47,-47 -133,-24 -155,40 -21,65 22,242 84,349 34,58 93,126 130,149 41,25 93,18 124,-17 z"
       id="path10" />
    <path
       d="m 11715,3938 c -3,-8 -1,-27 5,-42 13,-35 14,-31 -15,-50 -24,-16 -27,-15 -64,10 -22,14 -45,23 -50,19 -20,-12 -11,-33 24,-55 24,-15 34,-28 31,-39 -16,-59 -18,-62 -34,-56 -10,4 -29,9 -44,12 -23,5 -28,2 -28,-15 0,-16 12,-25 51,-39 52,-18 69,-39 69,-84 0,-18 -6,-20 -57,-17 -48,2 -58,0 -61,-14 -3,-18 3,-20 81,-33 37,-6 38,-7 35,-43 l -3,-37 -65,-5 c -49,-4 -65,-9 -65,-20 0,-11 14,-16 58,-18 31,-2 57,-6 57,-10 0,-27 -43,-70 -84,-86 -33,-13 -46,-23 -44,-35 4,-16 20,-18 68,-6 22,6 27,2 38,-28 7,-19 21,-42 31,-51 19,-18 19,-18 0,-49 -10,-18 -19,-40 -19,-49 0,-31 29,-19 55,22 21,33 31,40 58,40 27,0 36,-6 55,-40 22,-39 44,-51 57,-30 4,6 -3,26 -14,45 l -20,34 30,31 c 29,29 32,29 59,15 65,-34 99,-2 38,35 -18,11 -36,21 -40,22 -4,2 -2,20 4,42 l 12,38 50,-6 c 56,-6 84,7 65,30 -6,8 -26,14 -43,14 -48,0 -60,12 -52,54 5,28 12,37 34,42 58,13 77,21 77,35 0,11 -13,13 -52,12 l -53,-2 v 34 c 0,31 4,36 45,54 55,24 64,57 13,48 -18,-3 -40,-8 -49,-12 -28,-11 -34,54 -9,85 36,44 45,69 31,83 -10,9 -18,5 -40,-20 l -27,-32 -17,29 c -14,22 -16,41 -11,78 4,35 3,52 -6,57 -17,10 -40,-21 -40,-53 0,-20 -4,-23 -27,-20 -21,2 -33,13 -48,42 -22,43 -42,56 -50,34 z m 123,-143 c 39,-32 64,-133 65,-253 0,-96 -14,-171 -48,-247 -30,-67 -57,-90 -107,-90 -33,0 -45,6 -69,33 -36,40 -36,64 -2,138 22,49 27,73 27,149 1,49 -5,116 -13,147 -11,47 -12,62 -1,88 25,60 98,77 148,35 z"
       id="path12" />
    <path
       d="m 3255,4224 c -267,-41 -391,-134 -459,-341 -10,-29 -15,-57 -12,-61 3,-5 43,-12 88,-16 46,-4 156,-15 246,-25 l 164,-17 15,38 c 19,49 71,94 125,109 24,6 81,12 128,12 127,0 170,-30 186,-131 l 6,-40 -108,-35 c -60,-20 -197,-54 -304,-77 -256,-54 -302,-66 -376,-100 -80,-36 -145,-96 -180,-168 -26,-52 -29,-66 -29,-167 0,-100 2,-115 28,-167 33,-68 113,-145 189,-180 78,-37 157,-51 288,-50 190,0 322,41 451,139 l 66,50 12,-51 c 6,-28 20,-66 31,-84 l 20,-32 h 241 241 l -5,23 c -3,12 -16,49 -28,82 -22,58 -23,76 -29,490 -6,401 -8,434 -27,485 -78,211 -192,289 -468,320 -125,14 -392,11 -500,-6 z m 482,-826 c -8,-117 -21,-153 -76,-208 -58,-58 -137,-90 -222,-90 -113,0 -169,44 -169,135 0,95 48,128 280,195 80,22 146,43 149,45 2,3 13,5 24,5 19,0 19,-5 14,-82 z"
       id="path14" />
    <path
       d="m 7595,4226 c -173,-34 -277,-87 -391,-200 -136,-136 -195,-287 -195,-503 -1,-170 35,-295 120,-426 85,-130 223,-227 372,-262 116,-26 304,-38 435,-25 240,22 367,74 494,201 56,56 135,167 125,177 -3,3 -117,16 -253,29 l -247,22 -40,-39 c -57,-56 -122,-82 -204,-82 -37,0 -83,7 -102,15 -46,19 -106,72 -126,111 -14,28 -43,119 -43,138 0,4 237,9 528,10 l 527,3 -3,95 c -6,262 -69,429 -211,563 -79,74 -181,127 -301,157 -110,28 -380,36 -485,16 z m 334,-332 c 67,-36 106,-101 125,-206 l 7,-38 h -259 -259 l 8,43 c 4,24 15,62 24,85 23,56 104,128 158,141 61,15 143,4 196,-25 z"
       id="path16" />
    <path
       d="m 9385,4230 c -283,-44 -490,-210 -571,-457 -27,-83 -29,-98 -29,-258 0,-136 4,-182 18,-229 60,-194 200,-347 382,-417 112,-44 236,-62 420,-62 198,0 285,17 415,80 129,62 228,160 288,283 48,97 62,150 41,150 -8,0 -108,11 -224,25 -279,33 -259,34 -279,-20 -42,-108 -150,-172 -280,-163 -187,13 -289,180 -257,423 19,142 66,220 159,263 76,35 195,37 258,4 49,-25 88,-68 105,-117 12,-32 16,-35 44,-30 16,3 118,16 225,30 107,14 205,28 217,30 l 23,5 -21,53 c -36,91 -81,160 -149,227 -132,130 -280,180 -555,185 -93,2 -197,0 -230,-5 z"
       id="path18" />
  </g>
</svg>
